solid 
facet normal 0.10238099 -0.3150897 -0.94352347
 outer loop
  vertex 0 0 -0.6315791
  vertex 0.26862493 -0.19516514 -0.5372554
  vertex -0.10260353 -0.31578657 -0.5372556
 endloop
endfacet
facet normal 0.70022404 -0.26803175 -0.6616988
 outer loop
  vertex 0.45701525 -0.33203712 -0.2824545
  vertex 0.26862493 -0.19516514 -0.5372554
  vertex 0.5372514 0 -0.33204383
 endloop
endfacet
facet normal -0.26803425 -0.19473639 -0.9435229
 outer loop
  vertex 0 0 -0.6315791
  vertex -0.10260353 -0.31578657 -0.5372556
  vertex -0.33203995 0 -0.5372538
 endloop
endfacet
facet normal -0.26803425 0.19473638 -0.9435229
 outer loop
  vertex 0 0 -0.6315791
  vertex -0.33203995 0 -0.5372538
  vertex -0.10260353 0.31578657 -0.5372556
 endloop
endfacet
facet normal 0.102381 0.3150897 -0.94352347
 outer loop
  vertex 0 0 -0.6315791
  vertex -0.10260353 0.31578657 -0.5372556
  vertex 0.26862493 0.19516514 -0.5372554
 endloop
endfacet
facet normal 0.90498906 -0.26803148 -0.33038458
 outer loop
  vertex 0.45701525 -0.33203712 -0.2824545
  vertex 0.5372514 0 -0.33204383
  vertex 0.60066825 -0.19516592 0
 endloop
endfacet
facet normal 0.024746655 -0.94352144 -0.33038607
 outer loop
  vertex -0.17456089 -0.5372523 -0.2824547
  vertex 0.16602245 -0.51095486 -0.3320449
  vertex 0 -0.63157904 0
 endloop
endfacet
facet normal -0.8896973 -0.31509474 -0.33038473
 outer loop
  vertex -0.56490093 0 -0.28245205
  vertex -0.43464604 -0.3157876 -0.332044
  vertex -0.60066825 -0.19516592 0
 endloop
endfacet
facet normal -0.5746019 0.74878347 -0.3303875
 outer loop
  vertex -0.17456089 0.5372523 -0.2824547
  vertex -0.43464604 0.3157876 -0.332044
  vertex -0.3712331 0.510958 0
 endloop
endfacet
facet normal 0.534576 0.7778645 -0.33038646
 outer loop
  vertex 0.45701525 0.33203712 -0.2824545
  vertex 0.16602245 0.51095486 -0.3320449
  vertex 0.3712331 0.510958 0
 endloop
endfacet
facet normal 0.802609 -0.5831265 -0.12562723
 outer loop
  vertex 0.45701525 -0.33203712 -0.2824545
  vertex 0.60066825 -0.19516592 0
  vertex 0.3712331 -0.510958 0
 endloop
endfacet
facet normal -0.30656892 -0.94352156 -0.12562852
 outer loop
  vertex -0.17456089 -0.5372523 -0.2824547
  vertex 0 -0.63157904 0
  vertex -0.3712331 -0.510958 0
 endloop
endfacet
facet normal -0.9920774 -0 -0.12562822
 outer loop
  vertex -0.56490093 0 -0.28245205
  vertex -0.60066825 -0.19516592 0
  vertex -0.60066825 0.19516592 0
 endloop
endfacet
facet normal -0.30656892 0.94352156 -0.12562852
 outer loop
  vertex -0.17456089 0.5372523 -0.2824547
  vertex -0.3712331 0.510958 0
  vertex 0 0.63157904 0
 endloop
endfacet
facet normal 0.802609 0.5831265 -0.1256273
 outer loop
  vertex 0.45701525 0.33203712 -0.2824545
  vertex 0.3712331 0.510958 0
  vertex 0.60066825 0.19516592 0
 endloop
endfacet
facet normal 0.40894613 -0.6284252 0.6616985
 outer loop
  vertex 0.17456089 -0.5372523 0.2824547
  vertex 0.43464604 -0.3157876 0.332044
  vertex 0.10260353 -0.31578657 0.5372555
 endloop
endfacet
facet normal -0.47129974 -0.5831223 0.6616986
 outer loop
  vertex -0.45701525 -0.33203712 0.2824545
  vertex -0.16602245 -0.51095486 0.3320449
  vertex -0.26862493 -0.19516514 0.5372554
 endloop
endfacet
facet normal -0.70022404 0.26803175 0.6616988
 outer loop
  vertex -0.45701525 0.33203712 0.2824545
  vertex -0.5372514 0 0.33204383
  vertex -0.26862493 0.19516514 0.5372554
 endloop
endfacet
facet normal 0.03853038 0.748779 0.66169894
 outer loop
  vertex 0.17456089 0.5372523 0.2824547
  vertex -0.16602245 0.51095486 0.3320449
  vertex 0.10260353 0.31578657 0.5372555
 endloop
endfacet
facet normal 0.7240421 0.19473612 0.6616955
 outer loop
  vertex 0.56490093 0 0.28245205
  vertex 0.43464604 0.3157876 0.332044
  vertex 0.33203995 0 0.5372538
 endloop
endfacet
facet normal 0.26803425 0.19473656 0.9435229
 outer loop
  vertex 0.33203995 0 0.5372538
  vertex 0.10260353 0.31578657 0.5372555
  vertex 0 0 0.6315791
 endloop
endfacet
facet normal 0.49111935 0.35682106 0.7946575
 outer loop
  vertex 0.33203995 0 0.5372538
  vertex 0.43464604 0.3157876 0.332044
  vertex 0.10260353 0.31578657 0.5372555
 endloop
endfacet
facet normal 0.40894613 0.6284252 0.6616985
 outer loop
  vertex 0.43464604 0.3157876 0.332044
  vertex 0.17456089 0.5372523 0.2824547
  vertex 0.10260353 0.31578657 0.5372555
 endloop
endfacet
facet normal -0.102380894 0.31508985 0.94352347
 outer loop
  vertex 0.10260353 0.31578657 0.5372555
  vertex -0.26862493 0.19516514 0.5372554
  vertex 0 0 0.6315791
 endloop
endfacet
facet normal -0.18759418 0.5773453 0.7946575
 outer loop
  vertex 0.10260353 0.31578657 0.5372555
  vertex -0.16602245 0.51095486 0.3320449
  vertex -0.26862493 0.19516514 0.5372554
 endloop
endfacet
facet normal -0.47129974 0.58312225 0.6616986
 outer loop
  vertex -0.16602245 0.51095486 0.3320449
  vertex -0.45701525 0.33203712 0.2824545
  vertex -0.26862493 0.19516514 0.5372554
 endloop
endfacet
facet normal -0.33130455 0 0.9435239
 outer loop
  vertex -0.26862493 0.19516514 0.5372554
  vertex -0.26862493 -0.19516514 0.5372554
  vertex 0 0 0.6315791
 endloop
endfacet
facet normal -0.60706055 0 0.7946556
 outer loop
  vertex -0.26862493 0.19516514 0.5372554
  vertex -0.5372514 0 0.33204383
  vertex -0.26862493 -0.19516514 0.5372554
 endloop
endfacet
facet normal -0.70022404 -0.26803175 0.6616988
 outer loop
  vertex -0.5372514 0 0.33204383
  vertex -0.45701525 -0.33203712 0.2824545
  vertex -0.26862493 -0.19516514 0.5372554
 endloop
endfacet
facet normal -0.102380894 -0.31508985 0.94352347
 outer loop
  vertex -0.26862493 -0.19516514 0.5372554
  vertex 0.10260353 -0.31578657 0.5372555
  vertex 0 0 0.6315791
 endloop
endfacet
facet normal -0.18759418 -0.5773453 0.7946575
 outer loop
  vertex -0.26862493 -0.19516514 0.5372554
  vertex -0.16602245 -0.51095486 0.3320449
  vertex 0.10260353 -0.31578657 0.5372555
 endloop
endfacet
facet normal 0.038530376 -0.748779 0.66169894
 outer loop
  vertex -0.16602245 -0.51095486 0.3320449
  vertex 0.17456089 -0.5372523 0.2824547
  vertex 0.10260353 -0.31578657 0.5372555
 endloop
endfacet
facet normal 0.26803425 -0.19473656 0.9435229
 outer loop
  vertex 0.10260353 -0.31578657 0.5372555
  vertex 0.33203995 0 0.5372538
  vertex 0 0 0.6315791
 endloop
endfacet
facet normal 0.49111935 -0.35682106 0.7946575
 outer loop
  vertex 0.10260353 -0.31578657 0.5372555
  vertex 0.43464604 -0.3157876 0.332044
  vertex 0.33203995 0 0.5372538
 endloop
endfacet
facet normal 0.7240421 -0.19473612 0.6616955
 outer loop
  vertex 0.43464604 -0.3157876 0.332044
  vertex 0.56490093 0 0.28245205
  vertex 0.33203995 0 0.5372538
 endloop
endfacet
facet normal 0.8896973 0.31509474 0.33038473
 outer loop
  vertex 0.60066825 0.19516592 0
  vertex 0.43464604 0.3157876 0.332044
  vertex 0.56490093 0 0.28245205
 endloop
endfacet
facet normal 0.7946556 0.577348 0.187595
 outer loop
  vertex 0.60066825 0.19516592 0
  vertex 0.3712331 0.510958 0
  vertex 0.43464604 0.3157876 0.332044
 endloop
endfacet
facet normal 0.5746019 0.7487835 0.33038747
 outer loop
  vertex 0.3712331 0.510958 0
  vertex 0.17456089 0.5372523 0.2824547
  vertex 0.43464604 0.3157876 0.332044
 endloop
endfacet
facet normal -0.024746655 0.94352144 0.33038607
 outer loop
  vertex 0 0.63157904 0
  vertex -0.16602245 0.51095486 0.3320449
  vertex 0.17456089 0.5372523 0.2824547
 endloop
endfacet
facet normal -0.3035309 0.93417144 0.1875973
 outer loop
  vertex 0 0.63157904 0
  vertex -0.3712331 0.510958 0
  vertex -0.16602245 0.51095486 0.3320449
 endloop
endfacet
facet normal -0.53457606 0.7778645 0.3303865
 outer loop
  vertex -0.3712331 0.510958 0
  vertex -0.45701525 0.33203712 0.2824545
  vertex -0.16602245 0.51095486 0.3320449
 endloop
endfacet
facet normal -0.90498906 0.26803148 0.33038458
 outer loop
  vertex -0.60066825 0.19516592 0
  vertex -0.5372514 0 0.33204383
  vertex -0.45701525 0.33203712 0.2824545
 endloop
endfacet
facet normal -0.98224574 0 0.1875985
 outer loop
  vertex -0.60066825 0.19516592 0
  vertex -0.60066825 -0.19516592 0
  vertex -0.5372514 0 0.33204383
 endloop
endfacet
facet normal -0.90498906 -0.26803148 0.33038455
 outer loop
  vertex -0.60066825 -0.19516592 0
  vertex -0.45701525 -0.33203712 0.2824545
  vertex -0.5372514 0 0.33204383
 endloop
endfacet
facet normal -0.534576 -0.7778645 0.33038646
 outer loop
  vertex -0.3712331 -0.510958 0
  vertex -0.16602245 -0.51095486 0.3320449
  vertex -0.45701525 -0.33203712 0.2824545
 endloop
endfacet
facet normal -0.3035309 -0.93417144 0.1875973
 outer loop
  vertex -0.3712331 -0.510958 0
  vertex 0 -0.63157904 0
  vertex -0.16602245 -0.51095486 0.3320449
 endloop
endfacet
facet normal -0.02474665 -0.94352144 0.33038607
 outer loop
  vertex 0 -0.63157904 0
  vertex 0.17456089 -0.5372523 0.2824547
  vertex -0.16602245 -0.51095486 0.3320449
 endloop
endfacet
facet normal 0.5746019 -0.74878347 0.3303875
 outer loop
  vertex 0.3712331 -0.510958 0
  vertex 0.43464604 -0.3157876 0.332044
  vertex 0.17456089 -0.5372523 0.2824547
 endloop
endfacet
facet normal 0.7946556 -0.577348 0.18759497
 outer loop
  vertex 0.3712331 -0.510958 0
  vertex 0.60066825 -0.19516592 0
  vertex 0.43464604 -0.3157876 0.332044
 endloop
endfacet
facet normal 0.8896973 -0.3150947 0.3303847
 outer loop
  vertex 0.60066825 -0.19516592 0
  vertex 0.56490093 0 0.28245205
  vertex 0.43464604 -0.3157876 0.332044
 endloop
endfacet
facet normal 0.30656892 0.94352156 0.12562852
 outer loop
  vertex 0.3712331 0.510958 0
  vertex 0 0.63157904 0
  vertex 0.17456089 0.5372523 0.2824547
 endloop
endfacet
facet normal 0.3035309 0.93417144 -0.1875973
 outer loop
  vertex 0.3712331 0.510958 0
  vertex 0.16602245 0.51095486 -0.3320449
  vertex 0 0.63157904 0
 endloop
endfacet
facet normal 0.02474665 0.94352144 -0.33038607
 outer loop
  vertex 0.16602245 0.51095486 -0.3320449
  vertex -0.17456089 0.5372523 -0.2824547
  vertex 0 0.63157904 0
 endloop
endfacet
facet normal -0.802609 0.5831265 0.12562723
 outer loop
  vertex -0.3712331 0.510958 0
  vertex -0.60066825 0.19516592 0
  vertex -0.45701525 0.33203712 0.2824545
 endloop
endfacet
facet normal -0.79465556 0.5773479 -0.18759498
 outer loop
  vertex -0.3712331 0.510958 0
  vertex -0.43464604 0.3157876 -0.332044
  vertex -0.60066825 0.19516592 0
 endloop
endfacet
facet normal -0.8896973 0.3150947 -0.3303847
 outer loop
  vertex -0.43464604 0.3157876 -0.332044
  vertex -0.56490093 0 -0.28245205
  vertex -0.60066825 0.19516592 0
 endloop
endfacet
facet normal -0.802609 -0.5831265 0.1256273
 outer loop
  vertex -0.60066825 -0.19516592 0
  vertex -0.3712331 -0.510958 0
  vertex -0.45701525 -0.33203712 0.2824545
 endloop
endfacet
facet normal -0.79465556 -0.5773479 -0.18759498
 outer loop
  vertex -0.60066825 -0.19516592 0
  vertex -0.43464604 -0.3157876 -0.332044
  vertex -0.3712331 -0.510958 0
 endloop
endfacet
facet normal -0.5746019 -0.7487835 -0.33038747
 outer loop
  vertex -0.43464604 -0.3157876 -0.332044
  vertex -0.17456089 -0.5372523 -0.2824547
  vertex -0.3712331 -0.510958 0
 endloop
endfacet
facet normal 0.30656892 -0.94352156 0.12562852
 outer loop
  vertex 0 -0.63157904 0
  vertex 0.3712331 -0.510958 0
  vertex 0.17456089 -0.5372523 0.2824547
 endloop
endfacet
facet normal 0.3035309 -0.93417144 -0.1875973
 outer loop
  vertex 0 -0.63157904 0
  vertex 0.16602245 -0.51095486 -0.3320449
  vertex 0.3712331 -0.510958 0
 endloop
endfacet
facet normal 0.53457606 -0.7778645 -0.3303865
 outer loop
  vertex 0.16602245 -0.51095486 -0.3320449
  vertex 0.45701525 -0.33203712 -0.2824545
  vertex 0.3712331 -0.510958 0
 endloop
endfacet
facet normal 0.9920774 0 0.12562822
 outer loop
  vertex 0.60066825 -0.19516592 0
  vertex 0.60066825 0.19516592 0
  vertex 0.56490093 0 0.28245205
 endloop
endfacet
facet normal 0.98224574 0 -0.1875985
 outer loop
  vertex 0.60066825 -0.19516592 0
  vertex 0.5372514 0 -0.33204383
  vertex 0.60066825 0.19516592 0
 endloop
endfacet
facet normal 0.90498906 0.26803148 -0.33038455
 outer loop
  vertex 0.5372514 0 -0.33204383
  vertex 0.45701525 0.33203712 -0.2824545
  vertex 0.60066825 0.19516592 0
 endloop
endfacet
facet normal 0.47129974 0.5831223 -0.6616986
 outer loop
  vertex 0.26862493 0.19516514 -0.5372554
  vertex 0.16602245 0.51095486 -0.3320449
  vertex 0.45701525 0.33203712 -0.2824545
 endloop
endfacet
facet normal 0.18759435 0.5773454 -0.7946576
 outer loop
  vertex 0.26862493 0.19516514 -0.5372554
  vertex -0.10260353 0.31578657 -0.5372556
  vertex 0.16602245 0.51095486 -0.3320449
 endloop
endfacet
facet normal -0.038530357 0.74877906 -0.6616988
 outer loop
  vertex -0.10260353 0.31578657 -0.5372556
  vertex -0.17456089 0.5372523 -0.2824547
  vertex 0.16602245 0.51095486 -0.3320449
 endloop
endfacet
facet normal -0.4089462 0.6284252 -0.6616984
 outer loop
  vertex -0.10260353 0.31578657 -0.5372556
  vertex -0.43464604 0.3157876 -0.332044
  vertex -0.17456089 0.5372523 -0.2824547
 endloop
endfacet
facet normal -0.49111947 0.356821 -0.79465747
 outer loop
  vertex -0.10260353 0.31578657 -0.5372556
  vertex -0.33203995 0 -0.5372538
  vertex -0.43464604 0.3157876 -0.332044
 endloop
endfacet
facet normal -0.7240421 0.19473612 -0.6616955
 outer loop
  vertex -0.33203995 0 -0.5372538
  vertex -0.56490093 0 -0.28245205
  vertex -0.43464604 0.3157876 -0.332044
 endloop
endfacet
facet normal -0.7240421 -0.19473612 -0.6616955
 outer loop
  vertex -0.33203995 0 -0.5372538
  vertex -0.43464604 -0.3157876 -0.332044
  vertex -0.56490093 0 -0.28245205
 endloop
endfacet
facet normal -0.49111947 -0.356821 -0.79465747
 outer loop
  vertex -0.33203995 0 -0.5372538
  vertex -0.10260353 -0.31578657 -0.5372556
  vertex -0.43464604 -0.3157876 -0.332044
 endloop
endfacet
facet normal -0.40894622 -0.62842524 -0.6616984
 outer loop
  vertex -0.10260353 -0.31578657 -0.5372556
  vertex -0.17456089 -0.5372523 -0.2824547
  vertex -0.43464604 -0.3157876 -0.332044
 endloop
endfacet
facet normal 0.70022404 0.26803175 -0.6616988
 outer loop
  vertex 0.5372514 0 -0.33204383
  vertex 0.26862493 0.19516514 -0.5372554
  vertex 0.45701525 0.33203712 -0.2824545
 endloop
endfacet
facet normal 0.60706055 0 -0.7946556
 outer loop
  vertex 0.5372514 0 -0.33204383
  vertex 0.26862493 -0.19516514 -0.5372554
  vertex 0.26862493 0.19516514 -0.5372554
 endloop
endfacet
facet normal 0.33130455 0 -0.9435239
 outer loop
  vertex 0.26862493 -0.19516514 -0.5372554
  vertex 0 0 -0.6315791
  vertex 0.26862493 0.19516514 -0.5372554
 endloop
endfacet
facet normal -0.038530357 -0.74877906 -0.6616988
 outer loop
  vertex -0.10260353 -0.31578657 -0.5372556
  vertex 0.16602245 -0.51095486 -0.3320449
  vertex -0.17456089 -0.5372523 -0.2824547
 endloop
endfacet
facet normal 0.18759437 -0.5773454 -0.7946576
 outer loop
  vertex -0.10260353 -0.31578657 -0.5372556
  vertex 0.26862493 -0.19516514 -0.5372554
  vertex 0.16602245 -0.51095486 -0.3320449
 endloop
endfacet
facet normal 0.47129974 -0.58312225 -0.6616986
 outer loop
  vertex 0.26862493 -0.19516514 -0.5372554
  vertex 0.45701525 -0.33203712 -0.2824545
  vertex 0.16602245 -0.51095486 -0.3320449
 endloop
endfacet
endsolid 
