solid 
facet normal 0 1 -7.54979e-08
 outer loop
  vertex 0 0 0
  vertex 1 7.54979e-08 1
  vertex 1 0 0
 endloop
endfacet
facet normal 0 1 -7.54979e-08
 outer loop
  vertex 0 0 0
  vertex 0 7.54979e-08 1
  vertex 1 7.54979e-08 1
 endloop
endfacet
facet normal -1 -0 -0
 outer loop
  vertex 0 0 0
  vertex 0 -0.99999994 1.0000001
  vertex 0 7.54979e-08 1
 endloop
endfacet
facet normal -1 0 -0
 outer loop
  vertex 0 0 0
  vertex 0 -1 7.54979e-08
  vertex 0 -0.99999994 1.0000001
 endloop
endfacet
facet normal 0 1.1920929e-07 1
 outer loop
  vertex 0 7.54979e-08 1
  vertex 1 -0.99999994 1.0000001
  vertex 1 7.54979e-08 1
 endloop
endfacet
facet normal 0 1.1920929e-07 1
 outer loop
  vertex 0 7.54979e-08 1
  vertex 0 -0.99999994 1.0000001
  vertex 1 -0.99999994 1.0000001
 endloop
endfacet
facet normal 1 0 0
 outer loop
  vertex 1 0 0
  vertex 1 7.54979e-08 1
  vertex 1 -0.99999994 1.0000001
 endloop
endfacet
facet normal 1 -0 0
 outer loop
  vertex 1 0 0
  vertex 1 -0.99999994 1.0000001
  vertex 1 -1 7.54979e-08
 endloop
endfacet
facet normal -0 -7.54979e-08 -1
 outer loop
  vertex 0 0 0
  vertex 1 0 0
  vertex 1 -1 7.54979e-08
 endloop
endfacet
facet normal 0 -7.54979e-08 -1
 outer loop
  vertex 0 0 0
  vertex 1 -1 7.54979e-08
  vertex 0 -1 7.54979e-08
 endloop
endfacet
facet normal 0 -1 5.9604645e-08
 outer loop
  vertex 0 -1 7.54979e-08
  vertex 1 -1 7.54979e-08
  vertex 1 -0.99999994 1.0000001
 endloop
endfacet
facet normal 0 -1 5.9604645e-08
 outer loop
  vertex 0 -1 7.54979e-08
  vertex 1 -0.99999994 1.0000001
  vertex 0 -0.99999994 1.0000001
 endloop
endfacet
endsolid 
