solid 
facet normal -0.7836133 -0.5830972 0.2143544
 outer loop
  vertex -3.0524588 -0.10378228 0.8525877
  vertex -1.3153028 -1.1686628 4.3063526
  vertex -2.9719648 0.9640592 4.0516424
 endloop
endfacet
facet normal -0.78495795 0.5933367 -0.1783043
 outer loop
  vertex -2.9719648 0.9640592 4.0516424
  vertex -1.4398193 1.9809171 0.69036293
  vertex -3.0524588 -0.10378228 0.8525877
 endloop
endfacet
facet normal -0.78925896 0.58635193 -0.18237789
 outer loop
  vertex -1.4398193 1.9809171 0.69036293
  vertex -2.9719648 0.9640592 4.0516424
  vertex -1.327631 3.1582112 3.9899025
 endloop
endfacet
facet normal -0.7986398 0.5998717 0.048254415
 outer loop
  vertex -1.327631 3.1582112 3.9899025
  vertex -2.9719648 0.9640592 4.0516424
  vertex -2.2048845 1.5341835 9.659822
 endloop
endfacet
facet normal -0.80744267 -0.5655393 0.16793346
 outer loop
  vertex -2.2048845 1.5341835 9.659822
  vertex -2.9719648 0.9640592 4.0516424
  vertex -1.0191374 -0.11287899 9.814314
 endloop
endfacet
facet normal -0.7889817 -0.5941981 0.15632169
 outer loop
  vertex -2.9719648 0.9640592 4.0516424
  vertex -1.3153028 -1.1686628 4.3063526
  vertex -1.0191374 -0.11287899 9.814314
 endloop
endfacet
facet normal 0.3659793 -0.91742474 0.15617606
 outer loop
  vertex -1.0191374 -0.11287899 9.814314
  vertex -1.3153028 -1.1686628 4.3063526
  vertex 1.4408703 0.8515307 9.714821
 endloop
endfacet
facet normal -0.7712542 -0.60369617 0.20178688
 outer loop
  vertex -1.3153028 -1.1686628 4.3063526
  vertex -3.0524588 -0.10378228 0.8525877
  vertex -1.4136047 -2.143284 1.0148058
 endloop
endfacet
facet normal 0.33978647 -0.9045151 0.25767764
 outer loop
  vertex -1.3153028 -1.1686628 4.3063526
  vertex -1.4136047 -2.143284 1.0148058
  vertex 2.1177702 0.07674118 4.151023
 endloop
endfacet
facet normal 0.3428382 -0.9238184 0.170357
 outer loop
  vertex -1.3153028 -1.1686628 4.3063526
  vertex 2.1177702 0.07674118 4.151023
  vertex 1.4408703 0.8515307 9.714821
 endloop
endfacet
facet normal 0.32440346 -0.9049655 0.27531764
 outer loop
  vertex 2.1177702 0.07674118 4.151023
  vertex -1.4136047 -2.143284 1.0148058
  vertex 1.9864044 -0.9533893 0.91978455
 endloop
endfacet
facet normal 0.963352 -0.22349966 0.14832638
 outer loop
  vertex 2.338747 0.96451104 4.05352
  vertex 1.4408703 0.8515307 9.714821
  vertex 2.1177702 0.07674118 4.151023
 endloop
endfacet
facet normal 0.96855706 -0.245722 0.038960446
 outer loop
  vertex 2.2046518 -0.10378219 0.85259056
  vertex 2.1177702 0.07674118 4.151023
  vertex 1.9864044 -0.9533893 0.91978455
 endloop
endfacet
facet normal 0.9706531 -0.23737264 0.03855869
 outer loop
  vertex 2.1177702 0.07674118 4.151023
  vertex 2.2046518 -0.10378219 0.85259056
  vertex 2.338747 0.96451104 4.05352
 endloop
endfacet
facet normal 0.90413135 0.42030388 0.07675403
 outer loop
  vertex 1.5597191 2.6479163 4.0118523
  vertex 1.5976725 1.5342995 9.662925
  vertex 2.338747 0.96451104 4.05352
 endloop
endfacet
facet normal 0.8953244 0.41002157 -0.17400174
 outer loop
  vertex 2.338747 0.96451104 4.05352
  vertex 1.450449 1.4929594 0.72803783
  vertex 1.5597191 2.6479163 4.0118523
 endloop
endfacet
facet normal 0.8955662 0.4094253 -0.17416109
 outer loop
  vertex 1.450449 1.4929594 0.72803783
  vertex 2.338747 0.96451104 4.05352
  vertex 2.2046518 -0.10378219 0.85259056
 endloop
endfacet
facet normal 0.96615547 -0.21055621 0.14902931
 outer loop
  vertex 1.4408703 0.8515307 9.714821
  vertex 2.338747 0.96451104 4.05352
  vertex 1.5976725 1.5342995 9.662925
 endloop
endfacet
facet normal 0.9126241 0.40220538 0.07313045
 outer loop
  vertex 1.5976725 1.5342995 9.662925
  vertex 1.5597191 2.6479163 4.0118523
  vertex 1.029707 2.8029401 9.773479
 endloop
endfacet
facet normal 0.9088555 0.39528775 0.13315135
 outer loop
  vertex 1.029707 2.8029401 9.773479
  vertex 1.148097 1.564882 12.640816
  vertex 1.5976725 1.5342995 9.662925
 endloop
endfacet
facet normal 0.9662841 -0.21066065 0.1480444
 outer loop
  vertex 1.148097 1.564882 12.640816
  vertex 1.4408703 0.8515307 9.714821
  vertex 1.5976725 1.5342995 9.662925
 endloop
endfacet
facet normal 0.907634 0.3977152 0.13424993
 outer loop
  vertex 1.148097 1.564882 12.640816
  vertex 1.029707 2.8029401 9.773479
  vertex 0.6886263 2.5220191 12.911678
 endloop
endfacet
facet normal 0.8972616 0.4402226 -0.033551782
 outer loop
  vertex 1.3643103 1.4043446 16.316555
  vertex 1.148097 1.564882 12.640816
  vertex 0.6886263 2.5220191 12.911678
 endloop
endfacet
facet normal 0.97492754 -0.21231611 -0.066619776
 outer loop
  vertex 1.3643103 1.4043446 16.316555
  vertex 1.0229044 0.96685815 12.714613
  vertex 1.148097 1.564882 12.640816
 endloop
endfacet
facet normal 0.9721621 -0.18591903 0.14260061
 outer loop
  vertex 1.0229044 0.96685815 12.714613
  vertex 1.4408703 0.8515307 9.714821
  vertex 1.148097 1.564882 12.640816
 endloop
endfacet
facet normal 0.9573853 -0.2832654 -0.056339666
 outer loop
  vertex 1.1873131 0.79556996 16.36963
  vertex 1.0229044 0.96685815 12.714613
  vertex 1.3643103 1.4043446 16.316555
 endloop
endfacet
facet normal 0.39633444 -0.9160935 -0.060759436
 outer loop
  vertex 1.1873131 0.79556996 16.36963
  vertex -0.95409393 0.10104097 12.872893
  vertex 1.0229044 0.96685815 12.714613
 endloop
endfacet
facet normal 0.404257 -0.9129747 0.055257436
 outer loop
  vertex 1.0229044 0.96685815 12.714613
  vertex -0.95409393 0.10104097 12.872893
  vertex -1.0191374 -0.11287899 9.814314
 endloop
endfacet
facet normal 0.36665243 -0.9263095 0.08669838
 outer loop
  vertex -1.0191374 -0.11287899 9.814314
  vertex 1.4408703 0.8515307 9.714821
  vertex 1.0229044 0.96685815 12.714613
 endloop
endfacet
facet normal -0.24953766 -0.9683287 0.008401046
 outer loop
  vertex -0.95409393 0.10104097 12.872893
  vertex -0.77564716 0.09120732 17.039873
  vertex -1.6741085 0.32332414 17.107178
 endloop
endfacet
facet normal -0.824927 -0.55419713 -0.111180685
 outer loop
  vertex -1.6741085 0.32332414 17.107178
  vertex -1.905983 1.5648589 12.638996
  vertex -0.95409393 0.10104097 12.872893
 endloop
endfacet
facet normal -0.841075 -0.5380617 0.05551877
 outer loop
  vertex -1.905983 1.5648589 12.638996
  vertex -1.0191374 -0.11287899 9.814314
  vertex -0.95409393 0.10104097 12.872893
 endloop
endfacet
facet normal 0.33270806 -0.94288594 -0.016473003
 outer loop
  vertex -0.95409393 0.10104097 12.872893
  vertex 1.1873131 0.79556996 16.36963
  vertex -0.77564716 0.09120732 17.039873
 endloop
endfacet
facet normal -0.17722327 -0.98415613 -0.005362992
 outer loop
  vertex 1.086052 -0.25373128 18.818188
  vertex -0.7498627 0.07944997 18.345387
  vertex -0.77564716 0.09120732 17.039873
 endloop
endfacet
facet normal -0.25039968 -0.9681352 -0.003773444
 outer loop
  vertex -0.7498627 0.07944997 18.345387
  vertex -1.6741085 0.32332414 17.107178
  vertex -0.77564716 0.09120732 17.039873
 endloop
endfacet
facet normal 0.19494486 -0.9044143 -0.37951446
 outer loop
  vertex 1.1873131 0.79556996 16.36963
  vertex 1.086052 -0.25373128 18.818188
  vertex -0.77564716 0.09120732 17.039873
 endloop
endfacet
facet normal -0.56930315 -0.5608488 0.6011177
 outer loop
  vertex 1.086052 -0.25373128 18.818188
  vertex 4.023369 0.43550017 22.243105
  vertex 0.931653 0.734762 19.594234
 endloop
endfacet
facet normal -0.2993759 -0.6176835 0.72721475
 outer loop
  vertex 0.931653 0.734762 19.594234
  vertex -0.7498627 0.07944997 18.345387
  vertex 1.086052 -0.25373128 18.818188
 endloop
endfacet
facet normal -0.6130789 -0.48523346 0.62344426
 outer loop
  vertex 1.086052 -0.25373128 18.818188
  vertex 4.3564987 -0.74867684 21.649038
  vertex 4.023369 0.43550017 22.243105
 endloop
endfacet
facet normal 0.118522584 -0.91444236 -0.3869723
 outer loop
  vertex 1.1873131 0.79556996 16.36963
  vertex 2.2051897 0.5644885 17.22745
  vertex 1.086052 -0.25373128 18.818188
 endloop
endfacet
facet normal 0.16798835 -0.91969776 -0.3548747
 outer loop
  vertex 2.2051897 0.5644885 17.22745
  vertex 4.3564987 -0.74867684 21.649038
  vertex 1.086052 -0.25373128 18.818188
 endloop
endfacet
facet normal 0.20750925 -0.9055952 -0.36991516
 outer loop
  vertex 2.2051897 0.5644885 17.22745
  vertex 5.9682665 0.005625206 20.706564
  vertex 4.3564987 -0.74867684 21.649038
 endloop
endfacet
facet normal 0.2686884 -0.92208964 -0.27849114
 outer loop
  vertex 7.5360246 -0.6879074 24.515438
  vertex 4.3564987 -0.74867684 21.649038
  vertex 5.9682665 0.005625206 20.706564
 endloop
endfacet
facet normal 0.34040773 -0.86897564 -0.3591711
 outer loop
  vertex 4.3564987 -0.74867684 21.649038
  vertex 7.5360246 -0.6879074 24.515438
  vertex 6.0389323 -1.5260819 25.124428
 endloop
endfacet
facet normal -0.85576123 -0.40331075 0.3240574
 outer loop
  vertex 6.0389323 -1.5260819 25.124428
  vertex 4.023369 0.43550017 22.243105
  vertex 4.3564987 -0.74867684 21.649038
 endloop
endfacet
facet normal -0.118478835 -0.43641368 -0.8919113
 outer loop
  vertex 7.7113657 -0.7757535 24.53513
  vertex 6.0389323 -1.5260819 25.124428
  vertex 7.5360246 -0.6879074 24.515438
 endloop
endfacet
facet normal -0.8152432 -0.5433484 0.2003774
 outer loop
  vertex 4.023369 0.43550017 22.243105
  vertex 6.0389323 -1.5260819 25.124428
  vertex 5.304459 -0.17238006 25.806927
 endloop
endfacet
facet normal -0.58432555 0.08960813 -0.8065568
 outer loop
  vertex 6.0389323 -1.5260819 25.124428
  vertex 5.1166425 -0.19065502 25.940964
  vertex 5.304459 -0.17238006 25.806927
 endloop
endfacet
facet normal -0.73882616 -0.10305608 -0.66596955
 outer loop
  vertex 5.9812536 -1.7482091 25.22279
  vertex 5.1166425 -0.19065502 25.940964
  vertex 6.0389323 -1.5260819 25.124428
 endloop
endfacet
facet normal -0.15957476 -0.3647706 -0.91732126
 outer loop
  vertex 6.0389323 -1.5260819 25.124428
  vertex 7.7113657 -0.7757535 24.53513
  vertex 5.9812536 -1.7482091 25.22279
 endloop
endfacet
facet normal 0.22971028 -0.8003158 -0.5538302
 outer loop
  vertex 7.7113657 -0.7757535 24.53513
  vertex 6.681314 -2.9396362 27.23483
  vertex 5.9812536 -1.7482091 25.22279
 endloop
endfacet
facet normal 0.14840603 0.075184084 -0.9860644
 outer loop
  vertex 7.7451344 0.17974934 24.613066
  vertex 7.7113657 -0.7757535 24.53513
  vertex 7.5360246 -0.6879074 24.515438
 endloop
endfacet
facet normal 0.023912905 0.08043282 -0.99647313
 outer loop
  vertex 7.945797 0.22503239 24.621536
  vertex 7.7113657 -0.7757535 24.53513
  vertex 7.7451344 0.17974934 24.613066
 endloop
endfacet
facet normal 0.87128377 -0.16416323 -0.4625095
 outer loop
  vertex 8.906155 -0.48482567 26.682632
  vertex 7.7113657 -0.7757535 24.53513
  vertex 7.945797 0.22503239 24.621536
 endloop
endfacet
facet normal 0.30081263 -0.79686886 -0.5239388
 outer loop
  vertex 6.681314 -2.9396362 27.23483
  vertex 7.7113657 -0.7757535 24.53513
  vertex 8.639911 -1.7339599 26.525597
 endloop
endfacet
facet normal 0.87397414 -0.12732092 -0.46899745
 outer loop
  vertex 7.7113657 -0.7757535 24.53513
  vertex 8.906155 -0.48482567 26.682632
  vertex 8.639911 -1.7339599 26.525597
 endloop
endfacet
facet normal 0.404784 -0.19849175 0.892609
 outer loop
  vertex 8.639911 -1.7339599 26.525597
  vertex 8.906155 -0.48482567 26.682632
  vertex 8.473885 -1.5761706 26.635975
 endloop
endfacet
facet normal 0.80660623 0.56231785 -0.18216746
 outer loop
  vertex 8.906155 -0.48482567 26.682632
  vertex 7.945797 0.22503239 24.621536
  vertex 6.9829226 1.8078369 25.243923
 endloop
endfacet
facet normal 0.81220484 0.5341464 -0.23454411
 outer loop
  vertex 8.906155 -0.48482567 26.682632
  vertex 6.9829226 1.8078369 25.243923
  vertex 7.822691 1.5091385 27.471714
 endloop
endfacet
facet normal 0.75546795 0.15896733 0.6356081
 outer loop
  vertex 7.785103 1.2836318 27.57279
  vertex 8.906155 -0.48482567 26.682632
  vertex 7.822691 1.5091385 27.471714
 endloop
endfacet
facet normal 0.5294419 -0.24443692 0.8123681
 outer loop
  vertex 8.473885 -1.5761706 26.635975
  vertex 8.906155 -0.48482567 26.682632
  vertex 8.715149 -0.47569254 26.809864
 endloop
endfacet
facet normal 0.55073303 -0.069559805 0.8317779
 outer loop
  vertex 8.906155 -0.48482567 26.682632
  vertex 7.785103 1.2836318 27.57279
  vertex 8.715149 -0.47569254 26.809864
 endloop
endfacet
facet normal 0.8248646 0.5259508 -0.20730188
 outer loop
  vertex 7.785103 1.2836318 27.57279
  vertex 9.200158 -0.80341387 27.90827
  vertex 8.715149 -0.47569254 26.809864
 endloop
endfacet
facet normal 0.8210305 0.5181538 -0.23963635
 outer loop
  vertex 9.200158 -0.80341387 27.90827
  vertex 7.785103 1.2836318 27.57279
  vertex 8.21615 1.1486902 28.757847
 endloop
endfacet
facet normal -0.09673715 0.98435366 0.14727442
 outer loop
  vertex 6.6183205 1.0793576 28.171719
  vertex 8.21615 1.1486902 28.757847
  vertex 7.785103 1.2836318 27.57279
 endloop
endfacet
facet normal 0.38691512 0.32268402 0.8638123
 outer loop
  vertex 7.822691 1.5091385 27.471714
  vertex 6.6183205 1.0793576 28.171719
  vertex 7.785103 1.2836318 27.57279
 endloop
endfacet
facet normal -0.09955358 0.9828653 0.15512827
 outer loop
  vertex 8.21615 1.1486902 28.757847
  vertex 6.6183205 1.0793576 28.171719
  vertex 6.976573 0.9242043 29.384651
 endloop
endfacet
facet normal -0.90177834 0.30575997 0.30546135
 outer loop
  vertex 5.929209 -0.90730935 28.125944
  vertex 6.976573 0.9242043 29.384651
  vertex 6.6183205 1.0793576 28.171719
 endloop
endfacet
facet normal -0.22781639 0.056625232 0.9720562
 outer loop
  vertex 6.4812174 1.2717346 28.12838
  vertex 5.929209 -0.90730935 28.125944
  vertex 6.6183205 1.0793576 28.171719
 endloop
endfacet
facet normal 0.3351458 0.4279448 0.83936906
 outer loop
  vertex 6.6183205 1.0793576 28.171719
  vertex 7.822691 1.5091385 27.471714
  vertex 6.4812174 1.2717346 28.12838
 endloop
endfacet
facet normal -0.0887192 0.98085314 0.17336658
 outer loop
  vertex 7.822691 1.5091385 27.471714
  vertex 5.798127 1.6140491 25.842106
  vertex 6.4812174 1.2717346 28.12838
 endloop
endfacet
facet normal -0.88176864 0.350274 0.3158989
 outer loop
  vertex 5.1166425 -0.19065502 25.940964
  vertex 6.4812174 1.2717346 28.12838
  vertex 5.798127 1.6140491 25.842106
 endloop
endfacet
facet normal -0.8861574 0.30476037 0.34906474
 outer loop
  vertex 6.4812174 1.2717346 28.12838
  vertex 5.1166425 -0.19065502 25.940964
  vertex 5.705599 -0.9862572 28.130747
 endloop
endfacet
facet normal 0.024013514 -0.0072006686 0.99968565
 outer loop
  vertex 5.929209 -0.90730935 28.125944
  vertex 6.4812174 1.2717346 28.12838
  vertex 5.705599 -0.9862572 28.130747
 endloop
endfacet
facet normal -0.88724077 -0.4598689 0.03639181
 outer loop
  vertex 5.705599 -0.9862572 28.130747
  vertex 5.9812536 -1.7482091 25.22279
  vertex 6.681314 -2.9396362 27.23483
 endloop
endfacet
facet normal -0.8633316 -0.5021793 0.049744528
 outer loop
  vertex 5.9812536 -1.7482091 25.22279
  vertex 5.705599 -0.9862572 28.130747
  vertex 5.1166425 -0.19065502 25.940964
 endloop
endfacet
facet normal 0.4381985 -0.18460162 0.87971824
 outer loop
  vertex 6.762533 -2.632442 27.258837
  vertex 5.705599 -0.9862572 28.130747
  vertex 6.681314 -2.9396362 27.23483
 endloop
endfacet
facet normal 0.15477543 -0.38298175 0.91069734
 outer loop
  vertex 5.705599 -0.9862572 28.130747
  vertex 6.762533 -2.632442 27.258837
  vertex 5.929209 -0.90730935 28.125944
 endloop
endfacet
facet normal -0.88607746 -0.4593319 0.062297843
 outer loop
  vertex 6.762533 -2.632442 27.258837
  vertex 7.1243277 -3.1856217 28.326046
  vertex 5.929209 -0.90730935 28.125944
 endloop
endfacet
facet normal 0.3049463 -0.79935783 -0.5177208
 outer loop
  vertex 8.473885 -1.5761706 26.635975
  vertex 7.1243277 -3.1856217 28.326046
  vertex 6.762533 -2.632442 27.258837
 endloop
endfacet
facet normal 0.42815137 -0.170337 0.88750875
 outer loop
  vertex 6.762533 -2.632442 27.258837
  vertex 8.639911 -1.7339599 26.525597
  vertex 8.473885 -1.5761706 26.635975
 endloop
endfacet
facet normal 0.43252936 -0.18334217 0.8827819
 outer loop
  vertex 6.681314 -2.9396362 27.23483
  vertex 8.639911 -1.7339599 26.525597
  vertex 6.762533 -2.632442 27.258837
 endloop
endfacet
facet normal -0.8850127 -0.45599663 0.093912974
 outer loop
  vertex 7.1243277 -3.1856217 28.326046
  vertex 6.241584 -1.2747744 29.28545
  vertex 5.929209 -0.90730935 28.125944
 endloop
endfacet
facet normal 0.33285224 -0.29579222 0.89538616
 outer loop
  vertex 6.241584 -1.2747744 29.28545
  vertex 7.1243277 -3.1856217 28.326046
  vertex 7.8144326 -1.0838981 28.763813
 endloop
endfacet
facet normal 0.3446657 -0.8017433 -0.48827577
 outer loop
  vertex 7.1243277 -3.1856217 28.326046
  vertex 8.473885 -1.5761706 26.635975
  vertex 8.942817 -2.0203032 27.696247
 endloop
endfacet
facet normal 0.49037752 -0.3291025 0.8069829
 outer loop
  vertex 7.1243277 -3.1856217 28.326046
  vertex 8.942817 -2.0203032 27.696247
  vertex 7.8144326 -1.0838981 28.763813
 endloop
endfacet
facet normal 0.3276776 -0.15159287 0.9325486
 outer loop
  vertex 6.976573 0.9242043 29.384651
  vertex 6.241584 -1.2747744 29.28545
  vertex 7.8144326 -1.0838981 28.763813
 endloop
endfacet
facet normal 0.46137333 -0.080655485 0.8835323
 outer loop
  vertex 8.21615 1.1486902 28.757847
  vertex 6.976573 0.9242043 29.384651
  vertex 7.8144326 -1.0838981 28.763813
 endloop
endfacet
facet normal 0.5448152 -0.25443152 0.799025
 outer loop
  vertex 8.942817 -2.0203032 27.696247
  vertex 9.200158 -0.80341387 27.90827
  vertex 7.8144326 -1.0838981 28.763813
 endloop
endfacet
facet normal 0.5367516 -0.09433906 0.83844966
 outer loop
  vertex 9.200158 -0.80341387 27.90827
  vertex 8.21615 1.1486902 28.757847
  vertex 7.8144326 -1.0838981 28.763813
 endloop
endfacet
facet normal 0.8907044 -0.11158098 -0.4406761
 outer loop
  vertex 8.473885 -1.5761706 26.635975
  vertex 9.200158 -0.80341387 27.90827
  vertex 8.942817 -2.0203032 27.696247
 endloop
endfacet
facet normal -0.89883673 0.2854236 0.33260462
 outer loop
  vertex 6.976573 0.9242043 29.384651
  vertex 5.929209 -0.90730935 28.125944
  vertex 6.241584 -1.2747744 29.28545
 endloop
endfacet
facet normal -0.48280498 0.14720467 -0.8632671
 outer loop
  vertex 5.798127 1.6140491 25.842106
  vertex 6.9230056 1.5535136 25.202665
  vertex 5.9018073 1.3896608 25.745857
 endloop
endfacet
facet normal -0.46863556 0.24795566 -0.84787893
 outer loop
  vertex 6.9230056 1.5535136 25.202665
  vertex 5.798127 1.6140491 25.842106
  vertex 6.9829226 1.8078369 25.243923
 endloop
endfacet
facet normal -0.07922323 0.98364675 0.16174899
 outer loop
  vertex 7.822691 1.5091385 27.471714
  vertex 6.9829226 1.8078369 25.243923
  vertex 5.798127 1.6140491 25.842106
 endloop
endfacet
facet normal -0.49428076 0.1396481 -0.8580122
 outer loop
  vertex 5.9018073 1.3896608 25.745857
  vertex 5.1166425 -0.19065502 25.940964
  vertex 5.798127 1.6140491 25.842106
 endloop
endfacet
facet normal -0.085632846 0.98690325 0.13670808
 outer loop
  vertex 6.9230056 1.5535136 25.202665
  vertex 4.497348 1.7763479 22.0746
  vertex 5.9018073 1.3896608 25.745857
 endloop
endfacet
facet normal -0.86175084 0.35069346 0.3666054
 outer loop
  vertex 5.9018073 1.3896608 25.745857
  vertex 4.497348 1.7763479 22.0746
  vertex 4.023369 0.43550017 22.243105
 endloop
endfacet
facet normal -0.8631907 0.34452593 0.36905766
 outer loop
  vertex 4.023369 0.43550017 22.243105
  vertex 5.304459 -0.17238006 25.806927
  vertex 5.9018073 1.3896608 25.745857
 endloop
endfacet
facet normal -0.58241 0.1918392 -0.78993434
 outer loop
  vertex 5.1166425 -0.19065502 25.940964
  vertex 5.9018073 1.3896608 25.745857
  vertex 5.304459 -0.17238006 25.806927
 endloop
endfacet
facet normal -0.06460366 0.9905891 0.12066357
 outer loop
  vertex 6.9230056 1.5535136 25.202665
  vertex 5.434623 1.9263432 21.345032
  vertex 4.497348 1.7763479 22.0746
 endloop
endfacet
facet normal -0.072672695 0.9912237 0.110427774
 outer loop
  vertex 5.434623 1.9263432 21.345032
  vertex 1.2231808 1.8560724 19.20424
  vertex 4.497348 1.7763479 22.0746
 endloop
endfacet
facet normal -0.6223891 0.3103121 0.7185669
 outer loop
  vertex 1.2231808 1.8560724 19.20424
  vertex 4.023369 0.43550017 22.243105
  vertex 4.497348 1.7763479 22.0746
 endloop
endfacet
facet normal -0.57431924 0.39810306 0.71531206
 outer loop
  vertex 4.023369 0.43550017 22.243105
  vertex 1.2231808 1.8560724 19.20424
  vertex 0.931653 0.734762 19.594234
 endloop
endfacet
facet normal -0.26609066 0.37764373 0.88689405
 outer loop
  vertex 0.931653 0.734762 19.594234
  vertex 1.2231808 1.8560724 19.20424
  vertex -0.749835 1.7790861 18.645067
 endloop
endfacet
facet normal -0.068714656 0.992002 0.10587859
 outer loop
  vertex 0.7650366 2.0524848 17.066673
  vertex -0.749835 1.7790861 18.645067
  vertex 1.2231808 1.8560724 19.20424
 endloop
endfacet
facet normal -0.10716054 0.9877162 0.11372488
 outer loop
  vertex 0.7650366 2.0524848 17.066673
  vertex 1.2231808 1.8560724 19.20424
  vertex 1.8261089 2.066089 17.948345
 endloop
endfacet
facet normal -0.08081576 0.98866504 0.1265311
 outer loop
  vertex 1.2231808 1.8560724 19.20424
  vertex 5.434623 1.9263432 21.345032
  vertex 1.8261089 2.066089 17.948345
 endloop
endfacet
facet normal 0.51731783 0.72740984 -0.45084056
 outer loop
  vertex 1.8261089 2.066089 17.948345
  vertex 6.084894 0.76135683 20.729973
  vertex 2.3223352 1.2378634 17.181438
 endloop
endfacet
facet normal 0.42503098 0.7388557 -0.5229158
 outer loop
  vertex 2.3223352 1.2378634 17.181438
  vertex 0.7650366 2.0524848 17.066673
  vertex 1.8261089 2.066089 17.948345
 endloop
endfacet
facet normal 0.5560265 0.60899776 -0.56564665
 outer loop
  vertex 6.084894 0.76135683 20.729973
  vertex 1.8261089 2.066089 17.948345
  vertex 5.434623 1.9263432 21.345032
 endloop
endfacet
facet normal 0.67827964 -0.08205666 -0.7302078
 outer loop
  vertex 5.9682665 0.005625206 20.706564
  vertex 2.3223352 1.2378634 17.181438
  vertex 6.084894 0.76135683 20.729973
 endloop
endfacet
facet normal 0.7834171 0.56912357 -0.24971178
 outer loop
  vertex 7.7451344 0.17974934 24.613066
  vertex 6.084894 0.76135683 20.729973
  vertex 5.434623 1.9263432 21.345032
 endloop
endfacet
facet normal 0.9050041 -0.1270889 -0.40597537
 outer loop
  vertex 7.7451344 0.17974934 24.613066
  vertex 5.9682665 0.005625206 20.706564
  vertex 6.084894 0.76135683 20.729973
 endloop
endfacet
facet normal 0.45480075 0.8207185 -0.34579954
 outer loop
  vertex 0.7650366 2.0524848 17.066673
  vertex 2.3223352 1.2378634 17.181438
  vertex 1.3643103 1.4043446 16.316555
 endloop
endfacet
facet normal 0.6453311 -0.16325751 -0.74625385
 outer loop
  vertex 2.2051897 0.5644885 17.22745
  vertex 1.3643103 1.4043446 16.316555
  vertex 2.3223352 1.2378634 17.181438
 endloop
endfacet
facet normal 0.656331 -0.16449262 -0.7363231
 outer loop
  vertex 2.3223352 1.2378634 17.181438
  vertex 5.9682665 0.005625206 20.706564
  vertex 2.2051897 0.5644885 17.22745
 endloop
endfacet
facet normal 0.18090627 0.9776459 0.107151814
 outer loop
  vertex 0.7650366 2.0524848 17.066673
  vertex 0.6886263 2.5220191 12.911678
  vertex -0.9528961 2.8195145 12.968761
 endloop
endfacet
facet normal 0.06439017 0.98542494 0.15745392
 outer loop
  vertex -0.9528961 2.8195145 12.968761
  vertex -0.77516556 2.1055007 17.364733
  vertex 0.7650366 2.0524848 17.066673
 endloop
endfacet
facet normal 0.08062116 0.9662309 0.24474049
 outer loop
  vertex -0.77516556 2.1055007 17.364733
  vertex -0.749835 1.7790861 18.645067
  vertex 0.7650366 2.0524848 17.066673
 endloop
endfacet
facet normal 0.7657251 0.6405202 0.05830019
 outer loop
  vertex 0.6886263 2.5220191 12.911678
  vertex 0.7650366 2.0524848 17.066673
  vertex 1.3643103 1.4043446 16.316555
 endloop
endfacet
facet normal -0.096122496 0.9640608 0.247684
 outer loop
  vertex -1.6613989 2.0127091 17.381971
  vertex -0.749835 1.7790861 18.645067
  vertex -0.77516556 2.1055007 17.364733
 endloop
endfacet
facet normal -0.09958829 0.9815126 0.16344814
 outer loop
  vertex -1.6613989 2.0127091 17.381971
  vertex -0.77516556 2.1055007 17.364733
  vertex -0.9528961 2.8195145 12.968761
 endloop
endfacet
facet normal -0.78979796 0.613191 -0.014694117
 outer loop
  vertex -0.9528961 2.8195145 12.968761
  vertex -2.1342363 1.3898777 16.805645
  vertex -1.6613989 2.0127091 17.381971
 endloop
endfacet
facet normal -0.4836529 0.7633792 -0.42817298
 outer loop
  vertex -7.147972 0.962207 21.706545
  vertex -1.6613989 2.0127091 17.381971
  vertex -2.1342363 1.3898777 16.805645
 endloop
endfacet
facet normal -0.5626696 0.6007091 -0.5679361
 outer loop
  vertex -1.6613989 2.0127091 17.381971
  vertex -7.147972 0.962207 21.706545
  vertex -6.775881 1.6584299 22.074303
 endloop
endfacet
facet normal 0.13438748 0.9663268 0.21943718
 outer loop
  vertex -6.775881 1.6584299 22.074303
  vertex -1.5939083 1.7023841 18.707205
  vertex -1.6613989 2.0127091 17.381971
 endloop
endfacet
facet normal -0.07118492 0.97038054 0.23085566
 outer loop
  vertex -0.749835 1.7790861 18.645067
  vertex -1.6613989 2.0127091 17.381971
  vertex -1.5939083 1.7023841 18.707205
 endloop
endfacet
facet normal 0.5968834 0.32830423 0.7320836
 outer loop
  vertex -1.5939083 1.7023841 18.707205
  vertex -6.2368317 1.5478872 22.561964
  vertex -5.995117 0.73167104 22.730923
 endloop
endfacet
facet normal 0.07977779 0.987537 0.13566959
 outer loop
  vertex -1.5939083 1.7023841 18.707205
  vertex -6.775881 1.6584299 22.074303
  vertex -6.2368317 1.5478872 22.561964
 endloop
endfacet
facet normal 0.6115062 0.28579345 0.7378226
 outer loop
  vertex -5.995117 0.73167104 22.730923
  vertex -1.5503502 0.8354252 19.006918
  vertex -1.5939083 1.7023841 18.707205
 endloop
endfacet
facet normal 0.036675427 0.3281584 0.9439104
 outer loop
  vertex -0.7560406 0.8538209 18.96966
  vertex -1.5939083 1.7023841 18.707205
  vertex -1.5503502 0.8354252 19.006918
 endloop
endfacet
facet normal 0.039381478 0.33053952 0.94297016
 outer loop
  vertex -1.5939083 1.7023841 18.707205
  vertex -0.7560406 0.8538209 18.96966
  vertex -0.749835 1.7790861 18.645067
 endloop
endfacet
facet normal 0.050990026 -0.62655574 0.7777068
 outer loop
  vertex -1.5503502 0.8354252 19.006918
  vertex -0.7498627 0.07944997 18.345387
  vertex -0.7560406 0.8538209 18.96966
 endloop
endfacet
facet normal -0.30948853 0.3166265 0.8966407
 outer loop
  vertex -0.7560406 0.8538209 18.96966
  vertex 0.931653 0.734762 19.594234
  vertex -0.749835 1.7790861 18.645067
 endloop
endfacet
facet normal -0.31510654 -0.59716797 0.7376302
 outer loop
  vertex -0.7498627 0.07944997 18.345387
  vertex 0.931653 0.734762 19.594234
  vertex -0.7560406 0.8538209 18.96966
 endloop
endfacet
facet normal 0.5430942 -0.5518813 0.63283145
 outer loop
  vertex -5.995117 0.73167104 22.730923
  vertex -1.6010838 0.12024115 18.426758
  vertex -1.5503502 0.8354252 19.006918
 endloop
endfacet
facet normal 0.043771837 -0.6312533 0.77434057
 outer loop
  vertex -0.7498627 0.07944997 18.345387
  vertex -1.5503502 0.8354252 19.006918
  vertex -1.6010838 0.12024115 18.426758
 endloop
endfacet
facet normal -0.08384458 -0.98881435 -0.12335409
 outer loop
  vertex -6.8501606 0.14087501 21.829187
  vertex -1.6010838 0.12024115 18.426758
  vertex -6.3143024 0.034149878 22.320477
 endloop
endfacet
facet normal 0.5172427 -0.59734076 0.612898
 outer loop
  vertex -6.3143024 0.034149878 22.320477
  vertex -1.6010838 0.12024115 18.426758
  vertex -5.995117 0.73167104 22.730923
 endloop
endfacet
facet normal -0.09853196 -0.98435956 -0.14603996
 outer loop
  vertex -6.8501606 0.14087501 21.829187
  vertex -1.6741085 0.32332414 17.107178
  vertex -1.6010838 0.12024115 18.426758
 endloop
endfacet
facet normal -0.061493043 -0.9869993 -0.1484959
 outer loop
  vertex -0.7498627 0.07944997 18.345387
  vertex -1.6010838 0.12024115 18.426758
  vertex -1.6741085 0.32332414 17.107178
 endloop
endfacet
facet normal -0.85394174 -0.40159282 -0.33091795
 outer loop
  vertex -8.33436 0.57979614 25.126537
  vertex -6.8501606 0.14087501 21.829187
  vertex -7.9777927 -0.20209862 25.155293
 endloop
endfacet
facet normal -0.078903355 -0.9885416 -0.12868436
 outer loop
  vertex -7.9777927 -0.20209862 25.155293
  vertex -6.8501606 0.14087501 21.829187
  vertex -6.3143024 0.034149878 22.320477
 endloop
endfacet
facet normal -0.8661802 -0.3650356 -0.34129295
 outer loop
  vertex -6.8501606 0.14087501 21.829187
  vertex -8.33436 0.57979614 25.126537
  vertex -7.147972 0.962207 21.706545
 endloop
endfacet
facet normal -0.6435517 -0.33603635 -0.68769234
 outer loop
  vertex -2.1342363 1.3898777 16.805645
  vertex -6.8501606 0.14087501 21.829187
  vertex -7.147972 0.962207 21.706545
 endloop
endfacet
facet normal -0.59468657 -0.4457201 -0.6690901
 outer loop
  vertex -6.8501606 0.14087501 21.829187
  vertex -2.1342363 1.3898777 16.805645
  vertex -1.6741085 0.32332414 17.107178
 endloop
endfacet
facet normal -0.8077328 0.5473649 -0.21899644
 outer loop
  vertex -8.33436 0.57979614 25.126537
  vertex -6.775881 1.6584299 22.074303
  vertex -7.147972 0.962207 21.706545
 endloop
endfacet
facet normal -0.8028385 0.55678517 -0.21316837
 outer loop
  vertex -6.775881 1.6584299 22.074303
  vertex -8.33436 0.57979614 25.126537
  vertex -7.9280243 1.2782406 25.42049
 endloop
endfacet
facet normal 0.0878763 0.34254822 -0.9353814
 outer loop
  vertex -8.515015 0.6040991 25.118465
  vertex -7.9280243 1.2782406 25.42049
  vertex -8.33436 0.57979614 25.126537
 endloop
endfacet
facet normal 0.04228662 -0.017453825 -0.9989531
 outer loop
  vertex -7.9777927 -0.20209862 25.155293
  vertex -8.515015 0.6040991 25.118465
  vertex -8.33436 0.57979614 25.126537
 endloop
endfacet
facet normal -0.8448387 -0.40192655 -0.3531327
 outer loop
  vertex -8.067707 -0.367383 25.154037
  vertex -9.143385 -0.032839645 27.346733
  vertex -8.515015 0.6040991 25.118465
 endloop
endfacet
facet normal 0.043965783 -0.01633244 -0.9988995
 outer loop
  vertex -8.067707 -0.367383 25.154037
  vertex -8.515015 0.6040991 25.118465
  vertex -7.9777927 -0.20209862 25.155293
 endloop
endfacet
facet normal 0.1445366 0.29701573 -0.9438702
 outer loop
  vertex -7.9280243 1.2782406 25.42049
  vertex -8.515015 0.6040991 25.118465
  vertex -7.9998875 1.4736104 25.470964
 endloop
endfacet
facet normal -0.84175265 0.53313303 -0.08498048
 outer loop
  vertex -9.143385 -0.032839645 27.346733
  vertex -7.9998875 1.4736104 25.470964
  vertex -8.515015 0.6040991 25.118465
 endloop
endfacet
facet normal -0.7082234 -0.26689652 0.6535946
 outer loop
  vertex -8.696686 -0.8532125 27.495768
  vertex -9.143385 -0.032839645 27.346733
  vertex -8.736866 -1.043205 27.374645
 endloop
endfacet
facet normal -0.85933286 -0.3558972 -0.36726588
 outer loop
  vertex -9.143385 -0.032839645 27.346733
  vertex -8.067707 -0.367383 25.154037
  vertex -8.736866 -1.043205 27.374645
 endloop
endfacet
facet normal -0.86609703 0.4788641 -0.14340518
 outer loop
  vertex -7.9998875 1.4736104 25.470964
  vertex -9.143385 -0.032839645 27.346733
  vertex -8.69652 0.8842209 27.71017
 endloop
endfacet
facet normal -0.75304097 0.10984108 0.64874053
 outer loop
  vertex -8.69652 0.8842209 27.71017
  vertex -9.143385 -0.032839645 27.346733
  vertex -8.668108 0.69042563 27.775963
 endloop
endfacet
facet normal -0.7055721 -0.2647772 0.6573136
 outer loop
  vertex -9.143385 -0.032839645 27.346733
  vertex -8.696686 -0.8532125 27.495768
  vertex -9.019791 -0.043599505 27.475067
 endloop
endfacet
facet normal -0.7166006 0.058422588 0.69503266
 outer loop
  vertex -8.668108 0.69042563 27.775963
  vertex -9.143385 -0.032839645 27.346733
  vertex -9.019791 -0.043599505 27.475067
 endloop
endfacet
facet normal -0.85700077 0.5051785 -0.10170741
 outer loop
  vertex -8.668108 0.69042563 27.775963
  vertex -9.404234 -0.35059848 28.807919
  vertex -8.967363 0.41362974 28.922691
 endloop
endfacet
facet normal -0.86894345 0.47428435 -0.14139213
 outer loop
  vertex -9.404234 -0.35059848 28.807919
  vertex -8.668108 0.69042563 27.775963
  vertex -9.019791 -0.043599505 27.475067
 endloop
endfacet
facet normal -0.03673524 0.9735706 0.22541265
 outer loop
  vertex -8.967363 0.41362974 28.922691
  vertex -8.139288 0.6291015 28.127007
  vertex -8.668108 0.69042563 27.775963
 endloop
endfacet
facet normal -0.5249791 0.2035929 0.82640594
 outer loop
  vertex -8.139288 0.6291015 28.127007
  vertex -8.69652 0.8842209 27.71017
  vertex -8.668108 0.69042563 27.775963
 endloop
endfacet
facet normal 0.056810956 0.9471832 0.31562123
 outer loop
  vertex -8.139288 0.6291015 28.127007
  vertex -8.967363 0.41362974 28.922691
  vertex -8.358179 0.3480499 29.009846
 endloop
endfacet
facet normal 0.8776095 0.3489535 0.32868373
 outer loop
  vertex -8.358179 0.3480499 29.009846
  vertex -7.8403416 -0.19594924 28.20473
  vertex -8.139288 0.6291015 28.127007
 endloop
endfacet
facet normal -0.06800332 0.069119334 0.9952879
 outer loop
  vertex -7.6751575 -0.21857376 28.217587
  vertex -8.139288 0.6291015 28.127007
  vertex -7.8403416 -0.19594924 28.20473
 endloop
endfacet
facet normal -0.5010103 0.2562959 0.82662034
 outer loop
  vertex -8.69652 0.8842209 27.71017
  vertex -8.139288 0.6291015 28.127007
  vertex -8.051666 0.80504227 28.125563
 endloop
endfacet
facet normal -0.093793824 0.054868963 0.9940785
 outer loop
  vertex -8.139288 0.6291015 28.127007
  vertex -7.6751575 -0.21857376 28.217587
  vertex -8.051666 0.80504227 28.125563
 endloop
endfacet
facet normal -0.2232775 -0.32926622 0.91745895
 outer loop
  vertex -7.6751575 -0.21857376 28.217587
  vertex -8.157131 -0.9339509 27.84355
  vertex -8.08378 -1.1376702 27.788288
 endloop
endfacet
facet normal 0.8740293 -0.4606949 0.15437934
 outer loop
  vertex -8.08378 -1.1376702 27.788288
  vertex -6.966589 0.38467625 26.00618
  vertex -7.6751575 -0.21857376 28.217587
 endloop
endfacet
facet normal 0.86022663 0.3497675 0.37104294
 outer loop
  vertex -6.966589 0.38467625 26.00618
  vertex -8.051666 0.80504227 28.125563
  vertex -7.6751575 -0.21857376 28.217587
 endloop
endfacet
facet normal -0.12468475 -0.39246008 0.9112786
 outer loop
  vertex -8.157131 -0.9339509 27.84355
  vertex -7.6751575 -0.21857376 28.217587
  vertex -7.8403416 -0.19594924 28.20473
 endloop
endfacet
facet normal 0.8461799 -0.514499 0.13881733
 outer loop
  vertex -8.157131 -0.9339509 27.84355
  vertex -8.069597 -0.49126136 28.950716
  vertex -8.4984455 -1.2480232 28.76003
 endloop
endfacet
facet normal 0.8947729 -0.4344839 0.10298224
 outer loop
  vertex -8.069597 -0.49126136 28.950716
  vertex -8.157131 -0.9339509 27.84355
  vertex -7.8403416 -0.19594924 28.20473
 endloop
endfacet
facet normal -0.054885488 -0.9381217 -0.34192872
 outer loop
  vertex -9.110598 -1.1800817 28.671886
  vertex -8.157131 -0.9339509 27.84355
  vertex -8.4984455 -1.2480232 28.76003
 endloop
endfacet
facet normal 0.023212515 -0.9653002 -0.26010895
 outer loop
  vertex -9.110598 -1.1800817 28.671886
  vertex -8.696686 -0.8532125 27.495768
  vertex -8.157131 -0.9339509 27.84355
 endloop
endfacet
facet normal -0.5421282 -0.3671935 0.75582135
 outer loop
  vertex -8.736866 -1.043205 27.374645
  vertex -8.157131 -0.9339509 27.84355
  vertex -8.696686 -0.8532125 27.495768
 endloop
endfacet
facet normal -0.53169656 -0.3947094 0.7493352
 outer loop
  vertex -8.157131 -0.9339509 27.84355
  vertex -8.736866 -1.043205 27.374645
  vertex -8.08378 -1.1376702 27.788288
 endloop
endfacet
facet normal -0.17236313 -0.36712682 0.9140617
 outer loop
  vertex -8.4984455 -1.2480232 28.76003
  vertex -8.766527 -0.44071367 29.03373
  vertex -9.110598 -1.1800817 28.671886
 endloop
endfacet
facet normal -0.888832 -0.25186697 -0.38280624
 outer loop
  vertex -9.404234 -0.35059848 28.807919
  vertex -8.696686 -0.8532125 27.495768
  vertex -9.110598 -1.1800817 28.671886
 endloop
endfacet
facet normal -0.3551427 -0.2723741 0.89425164
 outer loop
  vertex -9.110598 -1.1800817 28.671886
  vertex -8.766527 -0.44071367 29.03373
  vertex -9.404234 -0.35059848 28.807919
 endloop
endfacet
facet normal 0.11607575 -0.030031538 0.9927862
 outer loop
  vertex -8.358179 0.3480499 29.009846
  vertex -8.766527 -0.44071367 29.03373
  vertex -8.069597 -0.49126136 28.950716
 endloop
endfacet
facet normal 0.09220074 -0.2921118 0.9519295
 outer loop
  vertex -8.069597 -0.49126136 28.950716
  vertex -8.766527 -0.44071367 29.03373
  vertex -8.4984455 -1.2480232 28.76003
 endloop
endfacet
facet normal -0.13065538 0.09751609 0.9866204
 outer loop
  vertex -8.967363 0.41362974 28.922691
  vertex -8.766527 -0.44071367 29.03373
  vertex -8.358179 0.3480499 29.009846
 endloop
endfacet
facet normal -0.32770914 0.04561206 0.943677
 outer loop
  vertex -9.404234 -0.35059848 28.807919
  vertex -8.766527 -0.44071367 29.03373
  vertex -8.967363 0.41362974 28.922691
 endloop
endfacet
facet normal 0.88238555 0.27657452 0.3806604
 outer loop
  vertex -7.8403416 -0.19594924 28.20473
  vertex -8.358179 0.3480499 29.009846
  vertex -8.069597 -0.49126136 28.950716
 endloop
endfacet
facet normal 0.73765016 0.18094274 -0.6504858
 outer loop
  vertex -7.3665752 1.1738666 25.772121
  vertex -6.966589 0.38467625 26.00618
  vertex -7.090048 0.39877042 25.870098
 endloop
endfacet
facet normal 0.73998743 -0.0113710705 -0.6725246
 outer loop
  vertex -6.966589 0.38467625 26.00618
  vertex -7.4240036 -0.2646158 25.513859
  vertex -7.090048 0.39877042 25.870098
 endloop
endfacet
facet normal 0.7813266 -0.08121845 -0.61881524
 outer loop
  vertex -7.4240036 -0.2646158 25.513859
  vertex -6.966589 0.38467625 26.00618
  vertex -7.391243 -0.44771332 25.579254
 endloop
endfacet
facet normal 0.85999364 -0.49734575 0.114271946
 outer loop
  vertex -8.08378 -1.1376702 27.788288
  vertex -7.391243 -0.44771332 25.579254
  vertex -6.966589 0.38467625 26.00618
 endloop
endfacet
facet normal 0.85859746 0.35588282 0.36899585
 outer loop
  vertex -8.051666 0.80504227 28.125563
  vertex -6.966589 0.38467625 26.00618
  vertex -7.317621 1.3517952 25.890228
 endloop
endfacet
facet normal 0.75954336 0.2015414 -0.61844563
 outer loop
  vertex -7.317621 1.3517952 25.890228
  vertex -6.966589 0.38467625 26.00618
  vertex -7.3665752 1.1738666 25.772121
 endloop
endfacet
facet normal 0.8771362 0.3316535 0.34733006
 outer loop
  vertex -7.3665752 1.1738666 25.772121
  vertex -5.995117 0.73167104 22.730923
  vertex -6.2368317 1.5478872 22.561964
 endloop
endfacet
facet normal 0.0911427 0.98495317 0.14683414
 outer loop
  vertex -6.2368317 1.5478872 22.561964
  vertex -7.9280243 1.2782406 25.42049
  vertex -7.3665752 1.1738666 25.772121
 endloop
endfacet
facet normal 0.54267126 0.35575855 -0.7608835
 outer loop
  vertex -7.9280243 1.2782406 25.42049
  vertex -7.317621 1.3517952 25.890228
  vertex -7.3665752 1.1738666 25.772121
 endloop
endfacet
facet normal 0.87083274 0.35382068 0.3412643
 outer loop
  vertex -5.995117 0.73167104 22.730923
  vertex -7.3665752 1.1738666 25.772121
  vertex -7.090048 0.39877042 25.870098
 endloop
endfacet
facet normal 0.01361968 0.96592045 0.25848058
 outer loop
  vertex -8.69652 0.8842209 27.71017
  vertex -7.317621 1.3517952 25.890228
  vertex -7.9998875 1.4736104 25.470964
 endloop
endfacet
facet normal 0.5316636 0.3898208 -0.75191325
 outer loop
  vertex -7.317621 1.3517952 25.890228
  vertex -7.9280243 1.2782406 25.42049
  vertex -7.9998875 1.4736104 25.470964
 endloop
endfacet
facet normal -0.027929703 0.97306436 0.22883563
 outer loop
  vertex -7.317621 1.3517952 25.890228
  vertex -8.69652 0.8842209 27.71017
  vertex -8.051666 0.80504227 28.125563
 endloop
endfacet
facet normal 0.5155632 -0.20490776 -0.83199006
 outer loop
  vertex -7.391243 -0.44771332 25.579254
  vertex -7.9777927 -0.20209862 25.155293
  vertex -7.4240036 -0.2646158 25.513859
 endloop
endfacet
facet normal 0.49133506 -0.26097554 -0.8309523
 outer loop
  vertex -7.9777927 -0.20209862 25.155293
  vertex -7.391243 -0.44771332 25.579254
  vertex -8.067707 -0.367383 25.154037
 endloop
endfacet
facet normal 0.058548585 -0.9598124 -0.27446723
 outer loop
  vertex -8.736866 -1.043205 27.374645
  vertex -8.067707 -0.367383 25.154037
  vertex -7.391243 -0.44771332 25.579254
 endloop
endfacet
facet normal 0.042476878 -0.9573759 -0.2857046
 outer loop
  vertex -8.736866 -1.043205 27.374645
  vertex -7.391243 -0.44771332 25.579254
  vertex -8.08378 -1.1376702 27.788288
 endloop
endfacet
facet normal 0.8150909 -0.53266144 0.22781295
 outer loop
  vertex -7.4240036 -0.2646158 25.513859
  vertex -5.995117 0.73167104 22.730923
  vertex -7.090048 0.39877042 25.870098
 endloop
endfacet
facet normal 0.82277423 -0.5163184 0.23760869
 outer loop
  vertex -7.4240036 -0.2646158 25.513859
  vertex -6.3143024 0.034149878 22.320477
  vertex -5.995117 0.73167104 22.730923
 endloop
endfacet
facet normal -0.042417884 -0.9932815 -0.107669406
 outer loop
  vertex -7.9777927 -0.20209862 25.155293
  vertex -6.3143024 0.034149878 22.320477
  vertex -7.4240036 -0.2646158 25.513859
 endloop
endfacet
facet normal -0.8725174 -0.35674468 -0.33383593
 outer loop
  vertex -8.696686 -0.8532125 27.495768
  vertex -9.404234 -0.35059848 28.807919
  vertex -9.019791 -0.043599505 27.475067
 endloop
endfacet
facet normal 0.0770018 0.9873373 0.13869284
 outer loop
  vertex -7.9280243 1.2782406 25.42049
  vertex -6.2368317 1.5478872 22.561964
  vertex -6.775881 1.6584299 22.074303
 endloop
endfacet
facet normal -0.9090934 -0.41115826 -0.06706795
 outer loop
  vertex -1.6741085 0.32332414 17.107178
  vertex -2.1342363 1.3898777 16.805645
  vertex -1.905983 1.5648589 12.638996
 endloop
endfacet
facet normal -0.7938916 0.6077939 -0.0179655
 outer loop
  vertex -2.1342363 1.3898777 16.805645
  vertex -0.9528961 2.8195145 12.968761
  vertex -1.905983 1.5648589 12.638996
 endloop
endfacet
facet normal -0.804069 0.5883871 0.08528622
 outer loop
  vertex -0.9528961 2.8195145 12.968761
  vertex -1.0208197 3.1869907 9.793179
  vertex -1.905983 1.5648589 12.638996
 endloop
endfacet
facet normal 0.18093592 0.9774098 0.109235086
 outer loop
  vertex 0.6886263 2.5220191 12.911678
  vertex -1.0208197 3.1869907 9.793179
  vertex -0.9528961 2.8195145 12.968761
 endloop
endfacet
facet normal -0.81347066 0.5766613 0.07567813
 outer loop
  vertex -1.905983 1.5648589 12.638996
  vertex -1.0208197 3.1869907 9.793179
  vertex -2.2048845 1.5341835 9.659822
 endloop
endfacet
facet normal -0.8137966 0.5797613 0.04014918
 outer loop
  vertex -1.0208197 3.1869907 9.793179
  vertex -1.327631 3.1582112 3.9899025
  vertex -2.2048845 1.5341835 9.659822
 endloop
endfacet
facet normal 0.1839375 0.9828295 -0.014598556
 outer loop
  vertex 1.029707 2.8029401 9.773479
  vertex -1.327631 3.1582112 3.9899025
  vertex -1.0208197 3.1869907 9.793179
 endloop
endfacet
facet normal 0.18402383 0.97702986 0.10746138
 outer loop
  vertex -1.0208197 3.1869907 9.793179
  vertex 0.6886263 2.5220191 12.911678
  vertex 1.029707 2.8029401 9.773479
 endloop
endfacet
facet normal 0.781497 0.57331526 -0.24611406
 outer loop
  vertex 5.434623 1.9263432 21.345032
  vertex 6.9230056 1.5535136 25.202665
  vertex 7.7451344 0.17974934 24.613066
 endloop
endfacet
facet normal -0.044645753 0.3713214 -0.9274304
 outer loop
  vertex 6.9230056 1.5535136 25.202665
  vertex 7.945797 0.22503239 24.621536
  vertex 7.7451344 0.17974934 24.613066
 endloop
endfacet
facet normal -0.25790587 0.21361984 -0.94225854
 outer loop
  vertex 6.9829226 1.8078369 25.243923
  vertex 7.945797 0.22503239 24.621536
  vertex 6.9230056 1.5535136 25.202665
 endloop
endfacet
facet normal 0.89272594 -0.12742342 -0.4322079
 outer loop
  vertex 9.200158 -0.80341387 27.90827
  vertex 8.473885 -1.5761706 26.635975
  vertex 8.715149 -0.47569254 26.809864
 endloop
endfacet
facet normal 0.899616 -0.17163144 -0.40153918
 outer loop
  vertex 5.9682665 0.005625206 20.706564
  vertex 7.7451344 0.17974934 24.613066
  vertex 7.5360246 -0.6879074 24.515438
 endloop
endfacet
facet normal 0.5933035 -0.23950255 -0.7685242
 outer loop
  vertex 1.3643103 1.4043446 16.316555
  vertex 2.2051897 0.5644885 17.22745
  vertex 1.1873131 0.79556996 16.36963
 endloop
endfacet
facet normal -0.812329 -0.57660735 0.08743837
 outer loop
  vertex -1.0191374 -0.11287899 9.814314
  vertex -1.905983 1.5648589 12.638996
  vertex -2.2048845 1.5341835 9.659822
 endloop
endfacet
facet normal 0.17410524 0.98467135 -0.010477878
 outer loop
  vertex -1.327631 3.1582112 3.9899025
  vertex 1.029707 2.8029401 9.773479
  vertex 1.5597191 2.6479163 4.0118523
 endloop
endfacet
facet normal 0.16660856 0.92842025 -0.3320805
 outer loop
  vertex -1.327631 3.1582112 3.9899025
  vertex 1.5597191 2.6479163 4.0118523
  vertex 1.450449 1.4929594 0.72803783
 endloop
endfacet
facet normal 0.16102605 0.9278059 -0.33652142
 outer loop
  vertex -1.327631 3.1582112 3.9899025
  vertex 1.450449 1.4929594 0.72803783
  vertex -1.4398193 1.9809171 0.69036293
 endloop
endfacet
facet normal -0.00010626275 -0.07760593 -0.9969841
 outer loop
  vertex -0.42390347 -0.104535446 0.8525877
  vertex -1.4398193 1.9809171 0.69036293
  vertex 1.450449 1.4929594 0.72803783
 endloop
endfacet
facet normal 2.3368668e-05 -0.0777571 -0.9969723
 outer loop
  vertex -0.42390347 -0.104535446 0.8525877
  vertex 1.450449 1.4929594 0.72803783
  vertex 2.2046518 -0.10378219 0.85259056
 endloop
endfacet
facet normal -2.2224893e-05 -0.07756523 -0.9969873
 outer loop
  vertex -0.42390347 -0.104535446 0.8525877
  vertex -3.0524588 -0.10378228 0.8525877
  vertex -1.4398193 1.9809171 0.69036293
 endloop
endfacet
facet normal -2.272044e-05 -0.07930583 -0.9968503
 outer loop
  vertex -0.42390347 -0.104535446 0.8525877
  vertex -1.4136047 -2.143284 1.0148058
  vertex -3.0524588 -0.10378228 0.8525877
 endloop
endfacet
facet normal -0.000121610705 -0.07925813 -0.9968541
 outer loop
  vertex -0.42390347 -0.104535446 0.8525877
  vertex 1.9864044 -0.9533893 0.91978455
  vertex -1.4136047 -2.143284 1.0148058
 endloop
endfacet
facet normal 2.3680228e-05 -0.07884817 -0.9968867
 outer loop
  vertex -0.42390347 -0.104535446 0.8525877
  vertex 2.2046518 -0.10378219 0.85259056
  vertex 1.9864044 -0.9533893 0.91978455
 endloop
endfacet
endsolid 
